<?xml version="1.0" encoding="UTF-8" standalone="no"?>
<!-- Created with Inkscape (http://www.inkscape.org/) -->

<svg
   width="210mm"
   height="297mm"
   viewBox="0 0 210 297"
   version="1.1"
   id="svg1"
   inkscape:version="1.3.2 (091e20e, 2023-11-25)"
   sodipodi:docname="drawing.svg"
   xmlns:inkscape="http://www.inkscape.org/namespaces/inkscape"
   xmlns:sodipodi="http://sodipodi.sourceforge.net/DTD/sodipodi-0.dtd"
   xmlns="http://www.w3.org/2000/svg"
   xmlns:svg="http://www.w3.org/2000/svg">
  <sodipodi:namedview
     id="namedview1"
     pagecolor="#ffffff"
     bordercolor="#000000"
     borderopacity="0.25"
     inkscape:showpageshadow="2"
     inkscape:pageopacity="0.0"
     inkscape:pagecheckerboard="0"
     inkscape:deskcolor="#d1d1d1"
     inkscape:document-units="mm"
     inkscape:zoom="0.2102413"
     inkscape:cx="394.78447"
     inkscape:cy="561.25985"
     inkscape:window-width="1312"
     inkscape:window-height="771"
     inkscape:window-x="0"
     inkscape:window-y="38"
     inkscape:window-maximized="0"
     inkscape:current-layer="layer1" />
  <defs
     id="defs1" />
  <g
     inkscape:label="Layer 1"
     inkscape:groupmode="layer"
     id="layer1">
    <path
       style="fill:#000000;stroke-width:0.323797"
       d="m 7.1167853,206.4989 c -0.5354333,-0.31186 -0.5666441,-2.85209 -0.5666441,-46.11977 0,-44.93958 0.011626,-45.79596 0.6263069,-46.12492 0.4122901,-0.22065 7.4658679,-0.33554 20.6420309,-0.33622 16.638388,-0.001 20.500598,-0.0859 22.889333,-0.50369 3.17872,-0.55601 6.229752,-1.60568 8.451157,-2.90751 2.010039,-1.17796 5.475645,-5.01167 6.527472,-7.22079 1.025136,-2.15305 2.061249,-5.871127 2.061249,-7.396747 v -1.07424 h -6.452499 c -7.417176,0 -10.655223,-0.36147 -13.622888,-1.52076 -4.181715,-1.63355 -6.446763,-3.64631 -7.398176,-6.57415 -0.202543,-0.62331 -0.496548,-3.55793 -0.653338,-6.52137 -0.156792,-2.96344 -0.373139,-5.53056 -0.480769,-5.70471 -0.10763,-0.17415 -0.942954,-0.41576 -1.85628,-0.53692 -8.303614,-1.10151 -16.346647,-9.21075 -18.238639,-18.388773 -0.945726,-4.587708 -0.493453,-10.449515 1.12257,-14.549403 2.481843,-6.296488 8.926596,-11.742008 16.053992,-13.564889 4.664623,-1.193009 11.783171,-0.719159 16.208256,1.078913 4.066363,1.652311 8.378735,5.425156 10.740993,9.397172 1.45338,2.443784 2.839633,6.592602 3.265302,9.772488 1.019435,7.615524 -2.852311,16.899752 -9.133578,21.901812 -2.119458,1.68782 -5.796679,3.41757 -8.749657,4.1158 l -2.25716,0.53371 0.182163,3.95557 c 0.20547,4.46156 0.648369,5.79465 2.358578,7.09908 1.988497,1.51671 3.619092,1.79731 11.473108,1.97441 l 7.294724,0.16449 0.393234,-5.33742 c 0.866334,-11.75892 2.94458,-19.935953 7.522618,-29.598369 6.013664,-12.692457 17.931841,-24.543198 31.432396,-31.25454 10.43378,-5.186803 20.64849,-7.238579 32.1922,-6.466276 6.20938,0.415422 9.2178,0.885895 14.50372,2.268166 19.45558,5.087664 35.07607,17.939982 43.93379,36.14811 2.4986,5.136158 3.52831,7.999693 4.88586,13.587309 2.18168,8.97967 2.02214,3.45784 2.14962,74.394517 0.11556,64.31256 0.1153,64.34499 -0.54187,65.00216 l -0.6575,0.65749 -97.86751,-0.01 C 39.675793,206.83215 7.4981949,206.72106 7.1167853,206.49891 Z M 196.94252,191.79209 c 0,-4.73061 -0.11566,-7.28542 -0.32988,-7.28542 -0.18142,0 -1.35357,0.35766 -2.60478,0.79481 -2.70921,0.94654 -4.90494,2.2465 -9.04581,5.35549 -3.66149,2.74907 -6.29765,4.06993 -9.47432,4.74717 -4.32987,0.92309 -9.79164,0.13977 -13.14323,-1.88499 -0.64982,-0.39257 -2.49287,-1.80205 -4.09567,-3.13217 -3.80192,-3.15512 -6.02867,-4.56422 -8.35874,-5.28942 -4.70366,-1.46394 -7.65365,-0.46008 -13.98321,4.75848 -5.88551,4.85243 -13.0161,6.84945 -19.83389,5.55477 -3.8206,-0.72553 -6.25327,-1.93693 -10.0474,-5.00332 -6.342855,-5.12625 -8.513675,-6.12609 -12.65302,-5.82774 -2.706777,0.19509 -4.365387,1.01988 -8.910735,4.43109 -1.911686,1.43469 -4.378074,3.11224 -5.480868,3.72791 -2.339834,1.30627 -7.495029,3.1008 -8.90774,3.1008 -0.962186,0 -0.982406,-0.0344 -1.190842,-2.02373 -0.116623,-1.11305 -0.164645,-2.82358 -0.10672,-3.80118 l 0.105315,-1.77747 1.964531,-0.52872 c 3.210201,-0.86399 4.755452,-1.69836 9.278589,-5.01007 4.533667,-3.31942 7.710199,-5.0066 10.548135,-5.60252 3.728249,-0.78287 8.85924,-0.19402 11.948075,1.37121 0.87922,0.44553 3.48363,2.31769 5.78758,4.16035 5.70198,4.56034 8.45021,5.66161 13.41192,5.37438 2.98725,-0.17293 5.79742,-1.36585 8.77253,-3.72393 5.12158,-4.05939 6.13546,-4.76289 8.6849,-6.02619 l 2.73294,-1.35423 4.23377,0.005 c 3.75691,0.005 4.49866,0.10156 6.58576,0.85954 2.94574,1.06982 4.90098,2.3198 8.6305,5.51733 5.2899,4.53538 9.00359,5.87354 12.85269,4.63125 2.35646,-0.76054 4.04299,-1.76316 8.04074,-4.78008 4.8294,-3.64454 10.25901,-6.07149 13.5833,-6.07149 h 1.00558 v -7.65432 -7.65432 l -1.69705,0.20099 c -2.10195,0.24895 -5.14117,1.71862 -7.8542,3.79804 -7.42242,5.68897 -12.17912,7.49823 -17.80956,6.77405 -4.47888,-0.57606 -7.5011,-2.05902 -13.07364,-6.41505 -4.80643,-3.75719 -8.09987,-4.9243 -12.08477,-4.28256 -2.77221,0.44646 -4.18323,1.21706 -9.15449,4.99956 -3.39309,2.58171 -5.1456,3.68176 -7.01236,4.40166 -7.80913,3.01152 -14.58324,1.61517 -21.97696,-4.5301 -4.19571,-3.48725 -8.105534,-5.18318 -11.93364,-5.17634 -4.061351,0.007 -6.640512,1.06407 -10.807811,4.42852 -3.093738,2.49771 -8.033625,4.99858 -11.481691,5.81272 -3.261738,0.77015 -3.385307,0.63536 -3.267109,-3.56381 l 0.09174,-3.25922 2.266574,-0.84171 c 3.521959,-1.30792 4.496356,-1.84871 8.173331,-4.53619 6.087407,-4.44925 9.26845,-5.61656 15.301921,-5.61517 6.108165,0.001 9.669515,1.48629 16.189835,6.75023 4.31449,3.48314 5.01531,3.88342 7.62297,4.35399 4.39295,0.79275 7.73007,-0.56095 14.2333,-5.77371 4.79993,-3.84745 8.7935,-5.53061 13.12234,-5.53061 5.8261,0 10.15979,1.85962 15.96194,6.84939 1.63436,1.40553 3.77297,2.95288 4.75246,3.43855 1.581,0.78393 2.14431,0.88304 5.01884,0.88304 3.99737,0 4.87709,-0.382 9.79825,-4.25468 4.42653,-3.48343 8.86409,-5.73171 12.78656,-6.47827 l 2.83322,-0.53923 v -7.60372 -7.60372 l -1.62798,0.19281 c -2.06553,0.24463 -4.69427,1.64474 -8.00853,4.26545 -6.44284,5.09458 -9.14262,6.31768 -14.48633,6.56282 -6.07277,0.27859 -8.81002,-0.7501 -14.74796,-5.54244 -6.05888,-4.88992 -8.3104,-5.88807 -12.73172,-5.64422 -3.4414,0.1898 -5.2421,1.10894 -8.87334,4.52936 -5.16047,4.86084 -8.2952,6.34186 -14.06303,6.64414 -2.1555,0.11297 -4.23633,0.0328 -5.50454,-0.21208 -2.59556,-0.50118 -6.1636,-2.41054 -9.2978,-4.97553 -6.46973,-5.29472 -9.067359,-6.36366 -15.486836,-6.37292 l -3.317846,-0.005 -8.783878,4.06562 c -17.502399,8.10097 -21.136043,10.21942 -25.463428,14.84541 -3.616063,3.86559 -5.340943,7.02984 -6.810401,12.49352 -0.81247,3.0209 -0.830842,3.33518 -0.960869,16.4364 l -0.132562,13.35661 h 75.14854 75.14851 z m -157.688483,-4.4522 c 2.65e-4,-8.58734 0.118512,-12.09539 0.477237,-14.1661 1.719802,-9.92744 4.789694,-16.3981 10.62823,-22.40202 5.744655,-5.90737 9.557695,-8.03146 35.035101,-19.5166 l 5.828337,-2.6274 -0.0177,-8.08292 c -0.01947,-8.8791 -0.39587,-11.76053 -1.954784,-14.96353 -1.767562,-3.63166 -5.38076,-6.599417 -10.067184,-8.268837 -3.765833,-1.34148 -3.98789,-1.35917 -3.990525,-0.31801 -0.0049,1.94133 -1.389989,6.561667 -2.892793,9.649767 -2.996586,6.15768 -8.977635,11.24916 -15.561344,13.24689 -4.527108,1.37369 -6.222579,1.47431 -24.851384,1.47477 l -17.889755,2.6e-4 v 38.69375 38.69369 h 12.628056 12.628064 z m 87.224453,-46.18045 c 1.02739,-0.4567 2.7842,-1.87144 5.01885,-4.0416 1.89098,-1.83642 4.10548,-3.7269 4.92111,-4.20107 3.76361,-2.188 8.54744,-2.9083 13.42352,-2.02119 4.58878,0.83484 7.21837,2.32513 13.61037,7.71349 2.93677,2.47566 5.00502,3.26829 8.55785,3.27971 3.65602,0.0118 5.13991,-0.6676 10.33571,-4.73175 4.77749,-3.73698 7.52348,-5.16146 11.52056,-5.9763 l 2.91417,-0.59409 0.0951,-22.17611 c 0.1335,-31.111897 -0.29806,-35.946907 -4.11471,-46.099747 -4.55702,-12.122446 -12.70549,-22.326546 -23.50313,-29.432346 -7.58863,-4.993996 -18.2848,-8.673419 -27.96175,-9.618708 -3.7033,-0.361752 -9.07725,-0.388157 -11.46743,-0.05634 l -1.545,0.214479 0.007,37.236608 c 0.007,39.836284 0.0177,39.548444 -1.6195,45.493414 -0.93201,3.38428 -3.45581,8.41746 -5.78568,11.5383 -3.67634,4.92444 -8.44174,8.7936 -15.23747,12.37176 -3.35999,1.76914 -3.56099,1.92743 -2.71296,2.13651 1.68514,0.41546 4.92783,2.45156 8.0889,5.07904 3.83556,3.18813 4.29654,3.49419 6.38502,4.23926 2.28924,0.81668 6.83586,0.63956 9.06945,-0.35332 z m -24.10628,-17.87077 c 10.10123,-5.28247 15.60105,-12.43001 17.56839,-22.83182 0.33368,-1.764197 0.42404,-9.981767 0.42404,-38.561065 0,-19.975499 -0.10482,-36.423952 -0.23293,-36.552117 -0.39881,-0.398959 -6.0481,1.762428 -10.44883,3.997664 -6.68573,3.395849 -10.397235,6.058373 -15.416423,11.059314 -6.444819,6.421384 -10.78946,13.170818 -13.998067,21.746106 -2.687677,7.183061 -4.104645,14.721111 -4.2076,22.383771 l -0.05629,4.18934 2.952358,0.75067 c 6.132108,1.55917 9.701059,3.57025 13.497266,7.60565 2.683645,2.85273 4.444759,6.027077 5.212575,9.395507 0.678953,2.97859 1.163066,8.80116 1.164356,14.00421 5.3e-4,2.44871 0.0923,4.4522 0.20364,4.4522 0.1114,0 1.613285,-0.73775 3.337515,-1.63943 z M 47.418703,66.001903 c 2.459537,-0.75968 5.500063,-2.64845 6.974795,-4.332731 4.237974,-4.840171 5.150921,-12.844434 2.181039,-19.122245 -1.504232,-3.179685 -5.502158,-6.294242 -9.687972,-7.547347 -2.426155,-0.726318 -6.97629,-0.627094 -9.624298,0.209878 -11.384084,3.598235 -14.536221,17.782611 -5.967275,26.852281 3.013054,3.189124 6.285473,4.537354 11.081509,4.565554 2.080332,0.0123 3.580014,-0.17377 5.042202,-0.62539 z"
       id="path5" />
    <text
       xml:space="preserve"
       style="font-style:normal;font-variant:normal;font-weight:normal;font-stretch:normal;font-size:86.0601px;line-height:0;font-family:'Gill Sans';-inkscape-font-specification:'Gill Sans, Normal';font-variant-ligatures:normal;font-variant-caps:normal;font-variant-numeric:normal;font-variant-east-asian:normal;letter-spacing:-2.6536px;word-spacing:2.04484px;fill:#1a1a1a;stroke-width:1.56094"
       x="6.0863853"
       y="263.30515"
       id="text1"
       transform="scale(0.93660486,1.0676861)"><tspan
         sodipodi:role="line"
         id="tspan1"
         x="6.0863853"
         y="263.30515"
         style="font-style:normal;font-variant:normal;font-weight:normal;font-stretch:normal;font-size:86.0601px;font-family:'Gill Sans';-inkscape-font-specification:'Gill Sans, Normal';font-variant-ligatures:normal;font-variant-caps:normal;font-variant-numeric:normal;font-variant-east-asian:normal;fill:#1a1a1a;stroke-width:1.56094">SOAK</tspan></text>
  </g>
</svg>
